<?xml version="1.0" encoding="utf-8"?><svg xmlns="http://www.w3.org/2000/svg" xmlns:xlink="http://www.w3.org/1999/xlink"><symbol viewBox="0 0 536.05 506.2" id="calendar" xmlns="http://www.w3.org/2000/svg"><defs><style>.acls-1{fill:none;stroke:#efece4;stroke-miterlimit:10;stroke-width:17px}.acls-2{fill:#231f20}</style></defs><g id="aСлой_2" data-name="Слой 2"><g id="aLayer_1" data-name="Layer 1"><path class="acls-1" d="M8.5 8.5h519.05v489.2H8.5zm0 104.41h519.05"/><path class="acls-2" d="M129.94 394.84c-4-2.6-4.62-4.62-4.62-8.08a337.7 337.7 0 0 1 2-36.09c.29-2.89.87-4.33 2.31-4.33s1.73.86 2 4c.29 1.73.29 4.91.58 6.64 3.17 19.34 15 32.33 42.73 32.33 29.16 0 52.25-16.74 52.25-51.1 0-38.68-34.64-52.25-53.41-56-5.48-1.15-7.5-1.73-7.5-3.75s2.92-2.86 6.72-3.46c14.14-2.6 45.9-16.46 45.9-50.24 0-12.13-7.5-39-41.57-39-21.08 0-36.38 11.84-36.38 34.07 0 2.89-1.15 3.47-2 3.47s-1.73-.58-2-3.18a285 285 0 0 1-2-28.87c0-2.6.29-3.75 3.75-6.06 9-4.34 25.12-9.82 46.77-9.82 47.06 0 57.17 28.87 57.17 43.31 0 28.87-29.74 47.92-38.69 52v1.45c18.19 4.33 47.64 21.94 47.64 55.43 0 40.42-34.94 74.2-86.33 74.2-11.94.01-29.26-3.46-35.32-6.92zm189.11-180.16c0-5.77-.58-9.23-4.33-9.23-7.22 0-26.57 9-28 9-.87 0-2.6-.29-2.6-1.45 0-.86.87-2 2-2.89 18.48-12.41 29.45-19.05 47.93-31.46 2.6-1.74 4.91-3.47 6.93-3.47 2.31 0 2.31 3.18 2.31 6.06 0 .87-1.73 62.65-1.73 128.48 0 28.87.57 54.57 1.44 67.27.58 8.95 2.6 13.86 12.13 14.72 3.46.29 5.77.58 7.79.87 2.89.29 4.62 1.16 4.62 2.89 0 1.44-1.44 2-4.91 2-21.65 0-31.47-.87-32.91-.87s-17 .87-35.51.87c-3.18 0-4.91-.58-4.91-2 0-1.16 1.15-2.31 4-2.31a99.12 99.12 0 0 0 11-.87c10.68-.86 13-5.77 13.86-17 .87-12.71.87-36.67.87-65.54z"/></g></g></symbol><symbol viewBox="0 0 139.02 135.29" id="camera" xmlns="http://www.w3.org/2000/svg"><defs><style>.bcls-1{fill:#fff}</style></defs><g id="bСлой_2" data-name="Слой 2"><g id="bLayer_1" data-name="Layer 1"><path class="bcls-1" d="M0 0h10v46H0z"/><path class="bcls-1" transform="rotate(-90 23 5)" d="M18-18h10v46H18z"/><path class="bcls-1" transform="rotate(90 116.02 5)" d="M111.02-18h10v46h-10z"/><path class="bcls-1" d="M129.02 0h10v46h-10z"/><path class="bcls-1" transform="rotate(180 134.025 112.29)" d="M129.02 89.29h10v46h-10z"/><path class="bcls-1" transform="rotate(90 116.02 130.29)" d="M111.02 107.29h10v46h-10z"/><path class="bcls-1" transform="rotate(-90 23 130.29)" d="M18 107.29h10v46H18z"/><path class="bcls-1" transform="rotate(180 5 112.29)" d="M0 89.29h10v46H0z"/></g></g></symbol><symbol viewBox="0 0 344.96 344.96" id="check" xmlns="http://www.w3.org/2000/svg"><g data-name="Слой 2"><path d="M321.85 86.24l-40-23.11-23.1-40H212.5L172.48 0l-40 23.11H86.24l-23.11 40-40 23.1v46.21L0 172.48l23.11 40v46.21l40 23.11 23.11 40h46.21l40 23.1 40-23.11h46.21l23.11-40 40-23.11V212.5l23.11-40-23.11-40V86.24zM156.91 243.07a16.79 16.79 0 0 1-23.34 0l-50.45-50.44a16.19 16.19 0 0 1 0-22.89l13.35-13.35a16.19 16.19 0 0 1 22.89 0l25.87 25.87 80.34-80.35a16.19 16.19 0 0 1 22.89 0l13.35 13.35a16.19 16.19 0 0 1 0 22.89z" data-name="Capa 1"/></g></symbol><symbol viewBox="0 0 146.93 270.31" id="fb" xmlns="http://www.w3.org/2000/svg"><g data-name="Слой 2"><path d="M4.5 86.4h29.64V71.12c0-17 1.82-29.77 5.46-38.15S49.93 17.7 59.68 12.43 81.85 4.5 96.8 4.5a151 151 0 0 1 45 6.83L135 48.51a111.34 111.34 0 0 0-25.15-3.06c-7.93 0-13.59 1.82-17 5.46S87.57 61.57 87.57 72v14.4h40.17v42.12H87.57v137.29H34.14V128.52H4.5z" stroke-miterlimit="10" stroke-width="9" data-name="Layer 1"/></g></symbol><symbol viewBox="0 0 35.42 39.69" id="list" xmlns="http://www.w3.org/2000/svg"><defs><style>.ecls-1{fill:none;stroke:#231f20;stroke-miterlimit:10;stroke-width:1.2px}</style></defs><g id="eСлой_2" data-name="Слой 2"><path class="ecls-1" d="M9.98 11.12h15.96M9.98 16.51h15.96M9.98 21.89h15.96M9.98 27.27h15.96M.6.6h34.22v5.59H.6zm2.95 5.59h28.32V33.5H3.55zM.6 33.5h34.22v5.59H.6z" id="e_ÎÓÈ_1" data-name="—ÎÓÈ_1"/></g></symbol><symbol viewBox="0 0 83.49 77.92" id="map" xmlns="http://www.w3.org/2000/svg"><defs><style>.fcls-3{fill:none;stroke-miterlimit:10;stroke:#fff;stroke-width:2px}</style></defs><g id="fСлой_2" data-name="Слой 2"><g id="f_ÎÓÈ_1" data-name="—ÎÓÈ_1"><path stroke-width="3" stroke-miterlimit="10" d="M1.5 1.5h80.49v74.92H1.5z"/><path d="M29.64 10.05l3.73 3.72-6.58 6.58 6.58 6.57-3.73 3.73-6.57-6.58-6.57 6.58-3.73-3.73 6.57-6.57-6.57-6.58 3.73-3.72 6.57 6.57 6.57-6.57M16.5 7.22l-1.42 1.41-3.72 3.73-1.42 1.41 1.42 1.42 5.16 5.16-5.16 5.16-1.42 1.41 1.42 1.42 3.72 3.72 1.42 1.42 1.41-1.42 5.16-5.16 5.16 5.16 1.41 1.42 1.42-1.42 3.72-3.72 1.42-1.42-1.42-1.41-5.16-5.16 5.16-5.16 1.42-1.42-1.42-1.41-3.72-3.73-1.42-1.41-1.41 1.41-5.16 5.16-5.16-5.16-1.41-1.41z"/><path class="fcls-3" d="M40.11 20.27A12.91 12.91 0 0 1 42.75 18"/><path d="M45.41 16.59c6.17-2.53 14.25-1.59 17.74 3.1 8.29 11.13 1.54 19.74-6.86 22.39-7.38 2.33-15.23-.74-22.26-.65-9.19.13-13.34 7.25-12.17 14.12 2.37 14 18.62 13.49 24.59 10.87 7.74-3.42 14.41-12.08 23.63-9.21" stroke-dasharray="7 3" stroke-width="2" stroke-miterlimit="10"/><path class="fcls-3" d="M71.48 57.73a18.68 18.68 0 0 1 3.07 1.7"/></g></g></symbol><symbol viewBox="0 0 53.76 52.68" id="mark" xmlns="http://www.w3.org/2000/svg"><defs><style>.gcls-1{fill:none;stroke:#fff;stroke-miterlimit:10;stroke-width:2px}</style></defs><g id="gСлой_2" data-name="Слой 2"><g id="g_ÎÓÈ_1" data-name="—ÎÓÈ_1"><path class="gcls-1" d="M44 18.25C44 27.78 26.73 51 26.73 51S9.47 27.78 9.47 18.25a17.26 17.26 0 0 1 34.51 0z"/><circle class="gcls-1" cx="26.73" cy="17.53" r="8.47"/><path class="gcls-1" d="M0 44.44h21.53m9.8 0h22.43"/></g></g></symbol><symbol viewBox="0 0 532.95 284.42" id="vk" xmlns="http://www.w3.org/2000/svg"><defs><style>.hcls-1{fill:none;stroke:#000;stroke-miterlimit:10;stroke-width:11px}</style></defs><g id="hСлой_2" data-name="Слой 2"><g id="hLayer_1" data-name="Layer 1"><path class="hcls-1" d="M417.56 159.9l12.72-19.24L443 121.43l12.72-19.24L468.46 83l12.72-19.24 12.72-19.28 12.73-19.24L519.35 6H363.24l-.36 1.41-.37 1.41-.36 1.41-.37 1.42-.36 1.41-.37 1.41-.36 1.41-.36 1.41c-.94 3.63-2 7.41-3.12 11.31s-2.41 7.89-3.78 11.95-2.87 8.16-4.49 12.28-3.35 8.23-5.23 12.3-3.88 8.08-6 12-4.43 7.73-6.86 11.38a124.37 124.37 0 0 1-7.75 10.44 95.92 95.92 0 0 1-8.67 9.19l-1.12 1c-.37.33-.74.66-1.11 1l-1.09.92-1.07.87-1.06.83c-.35.27-.69.53-1 .78l-1 .74-1 .69V6h-136v30.1h12.7v68.22c-1.9-1.67-3.87-3.54-5.86-5.61s-4-4.35-6-6.85-4-5.22-6-8.18-3.87-6.16-5.7-9.62-3.58-7.16-5.21-11.13-3.16-8.23-4.53-12.76-2.59-9.35-3.62-14.47-1.88-10.54-2.51-16.28l-.18-1.68-.18-1.68-.19-1.67-.18-1.68-.2-1.71-.19-1.68-.13-1.64-.23-1.68H7.66l.58 2.33.57 2.33.58 2.34.61 2.33.58 2.33.54 2.34.57 2.33.58 2.34q3.11 12.57 6.59 24.58t7.37 23.44q3.87 11.43 8.12 22.26T43.23 116q4.62 10.23 9.62 19.86t10.36 18.64q5.35 9 11.09 17.39T86.1 188q5 6.33 10.17 12.23t10.63 11.38q5.43 5.48 11.08 10.52t11.53 9.65q5.87 4.62 12 8.79t12.38 7.9q6.3 3.72 12.79 7t13.2 6.12q6 2.52 11.83 4.59t11.53 3.72q5.69 1.67 11.16 2.93t10.72 2.22c3.49.63 6.9 1.15 10.21 1.58s6.54.77 9.65 1 6.12.44 9 .56 5.66.17 8.3.17c2.43 0 4.75-.05 7-.12s4.29-.19 6.24-.32 3.8-.29 5.49-.46 3.27-.35 4.68-.53 2.7-.37 3.82-.55 2.1-.34 2.91-.49l1.93-.37.92-.2 1.44-.34 1.43-.33 1.43-.34 1.43-.33 1.44-.34 1.43-.33 1.43-.33 1.44-.34.07-5.17.08-5.16.07-5.17.04-5.14.08-5.17.07-5.17.08-5.17.07-5.17 6.38 5.55 6.39 5.56 6.33 5.57 6.38 5.55 6.38 5.55 6.38 5.56 6.39 5.55 6.38 5.55h161.35l-12.76-14.47-12.76-14.49-12.77-14.48-12.76-14.48-12.76-14.49-12.77-14.48-12.76-14.48z"/><path class="hcls-1" d="M262.24 278.92a208.924 208.924 0 0 1-17.32-.73c-3.22-.27-6.48-.62-9.67-1-3.4-.45-6.84-1-10.24-1.59-3.59-.65-7.2-1.39-10.74-2.22-3.74-.87-7.5-1.86-11.19-2.94a209.95 209.95 0 0 1-11.55-3.73c-4-1.41-8-3-11.86-4.6-4.46-1.89-8.91-3.95-13.23-6.13s-8.64-4.55-12.83-7-8.35-5.14-12.41-7.92-8.08-5.74-12-8.8-7.8-6.33-11.55-9.68-7.49-6.89-11.11-10.54-7.19-7.48-10.65-11.4-6.89-8.11-10.18-12.31c-4-5.14-8-10.58-11.83-16.15s-7.54-11.44-11.1-17.42-7.05-12.26-10.37-18.66-6.56-13.1-9.64-19.88-6.06-13.91-8.88-21.1-5.56-14.69-8.14-22.28-5.05-15.49-7.37-23.46-4.54-16.25-6.6-24.6L7 5.5h135.21l1.52 13.86c.61 5.56 1.45 11 2.5 16.24 1 4.95 2.21 9.8 3.61 14.43 1.32 4.36 2.84 8.64 4.51 12.71 1.57 3.82 3.32 7.55 5.19 11.09 1.76 3.31 3.66 6.53 5.67 9.57 1.87 2.82 3.86 5.56 5.94 8.15 1.9 2.37 3.92 4.66 6 6.81 1.61 1.68 3.29 3.31 5 4.85V36.6h-12.7V5.5h137V114l.21-.14 1-.73 1-.78 1-.82 1.07-.86 1.09-.92 1.1-1 1.11-1a96.17 96.17 0 0 0 8.63-9.15 121 121 0 0 0 7.71-10.4c2.35-3.52 4.65-7.34 6.84-11.34 2.06-3.76 4.08-7.79 6-12 1.8-3.9 3.55-8 5.22-12.27 1.54-3.94 3-8.07 4.47-12.26 1.31-3.85 2.58-7.87 3.78-11.94 1.08-3.66 2.12-7.46 3.11-11.28l3-11.67h157.49L418.19 159.86l102.58 116.41H358.12l-50.38-43.83-.59 40.66-11.84 2.76-.93.2c-.49.11-1.14.23-1.95.38s-1.79.32-2.92.5-2.41.36-3.83.54-3.11.38-4.7.54c-1.8.18-3.65.33-5.5.46-2.06.14-4.17.24-6.27.32-2.3.08-4.64.12-6.97.12zM8.3 6.5l4.45 18c2.06 8.34 4.28 16.6 6.59 24.57s4.79 15.83 7.36 23.41 5.3 15.1 8.12 22.28 5.8 14.25 8.87 21 6.3 13.46 9.61 19.84 6.79 12.64 10.34 18.61 7.27 11.81 11.07 17.36 7.76 11 11.79 16.1c3.28 4.19 6.69 8.29 10.14 12.21s7 7.72 10.61 11.36 7.33 7.16 11.06 10.49 7.61 6.58 11.51 9.64 7.9 6 11.93 8.76 8.19 5.42 12.35 7.89 8.47 4.82 12.77 7 8.73 4.23 13.17 6.11c3.87 1.63 7.84 3.18 11.8 4.58 3.78 1.34 7.65 2.59 11.5 3.71 3.67 1.07 7.41 2.06 11.13 2.93 3.53.82 7.12 1.56 10.7 2.2 3.38.61 6.81 1.14 10.19 1.58 3.18.42 6.42.76 9.62 1 3 .25 6 .44 9 .56 5.09.21 10.22.22 15.22.05 2.08-.08 4.18-.18 6.23-.32 1.84-.13 3.68-.28 5.48-.46a153.854 153.854 0 0 0 8.46-1.07c1.11-.18 2.09-.34 2.9-.49l1.92-.37.91-.2 11.08-2.59.61-42 51.73 45h160L416.93 160 518.42 6.5H363.63l-2.82 10.92c-1 3.83-2 7.64-3.13 11.32-1.2 4.08-2.47 8.1-3.78 12-1.43 4.21-2.94 8.35-4.49 12.3-1.67 4.26-3.44 8.41-5.24 12.33-1.94 4.19-4 8.24-6 12-2.21 4-4.53 7.87-6.89 11.42a124.43 124.43 0 0 1-7.77 10.48 98.11 98.11 0 0 1-8.72 9.24l-1.13 1c-.37.34-.74.66-1.11 1l-1.1.93c-.36.3-.73.59-1.08.87l-1.06.84-1 .78c-.34.26-.68.5-1 .74l-1 .7-.78.54V6.5h-135v29.1h12.7v69.83l-.83-.73c-2-1.77-4-3.67-5.89-5.64-2.09-2.18-4.13-4.49-6-6.89-2.1-2.61-4.11-5.37-6-8.22-2-3.07-3.95-6.32-5.72-9.65-1.89-3.57-3.65-7.33-5.24-11.18-1.68-4.1-3.21-8.41-4.54-12.8-1.4-4.66-2.63-9.54-3.63-14.52-1.06-5.25-1.91-10.74-2.52-16.33l-1.41-13z"/></g></g></symbol><symbol viewBox="0 0 83.49 77.92" id="Ресурс_10" xmlns="http://www.w3.org/2000/svg"><defs><style>.icls-3{fill:none;stroke-miterlimit:10;stroke:#fff;stroke-width:2px}</style></defs><g id="iСлой_2" data-name="Слой 2"><g id="i_ÎÓÈ_1" data-name="—ÎÓÈ_1"><path stroke-width="3" stroke-miterlimit="10" d="M1.5 1.5h80.49v74.92H1.5z"/><path d="M29.64 10.05l3.73 3.72-6.58 6.58 6.58 6.57-3.73 3.73-6.57-6.58-6.57 6.58-3.73-3.73 6.57-6.57-6.57-6.58 3.73-3.72 6.57 6.57 6.57-6.57M16.5 7.22l-1.42 1.41-3.72 3.73-1.42 1.41 1.42 1.42 5.16 5.16-5.16 5.16-1.42 1.41 1.42 1.42 3.72 3.72 1.42 1.42 1.41-1.42 5.16-5.16 5.16 5.16 1.41 1.42 1.42-1.42 3.72-3.72 1.42-1.42-1.42-1.41-5.16-5.16 5.16-5.16 1.42-1.42-1.42-1.41-3.72-3.73-1.42-1.41-1.41 1.41-5.16 5.16-5.16-5.16-1.41-1.41z"/><path class="icls-3" d="M40.11 20.27A12.91 12.91 0 0 1 42.75 18"/><path d="M45.41 16.59c6.17-2.53 14.25-1.59 17.74 3.1 8.29 11.13 1.54 19.74-6.86 22.39-7.38 2.33-15.23-.74-22.26-.65-9.19.13-13.34 7.25-12.17 14.12 2.37 14 18.62 13.49 24.59 10.87 7.74-3.42 14.41-12.08 23.63-9.21" stroke-dasharray="7 3" stroke-width="2" stroke-miterlimit="10"/><path class="icls-3" d="M71.48 57.73a18.68 18.68 0 0 1 3.07 1.7"/></g></g></symbol></svg>