<svg xmlns="http://www.w3.org/2000/svg" viewBox="0 0 536.05 506.2"><defs><style>.cls-1{fill:none;stroke:#efece4;stroke-miterlimit:10;stroke-width:17px;}.cls-2{fill:#231f20;}</style></defs><title>calendar</title><g id="Слой_2" data-name="Слой 2"><g id="Layer_1" data-name="Layer 1"><rect class="cls-1" x="8.5" y="8.5" width="519.05" height="489.2"/><line class="cls-1" x1="8.5" y1="112.91" x2="527.55" y2="112.91"/><path class="cls-2" d="M129.94,394.84c-4-2.6-4.62-4.62-4.62-8.08a337.7,337.7,0,0,1,2-36.09c.29-2.89.87-4.33,2.31-4.33s1.73.86,2,4c.29,1.73.29,4.91.58,6.64,3.17,19.34,15,32.33,42.73,32.33,29.16,0,52.25-16.74,52.25-51.1,0-38.68-34.64-52.25-53.41-56-5.48-1.15-7.5-1.73-7.5-3.75S169.2,275.6,173,275c14.14-2.6,45.9-16.46,45.9-50.24,0-12.13-7.5-39-41.57-39-21.08,0-36.38,11.84-36.38,34.07,0,2.89-1.15,3.47-2,3.47s-1.73-.58-2-3.18a285,285,0,0,1-2-28.87c0-2.6.29-3.75,3.75-6.06,9-4.34,25.12-9.82,46.77-9.82,47.06,0,57.17,28.87,57.17,43.31,0,28.87-29.74,47.92-38.69,52v1.45c18.19,4.33,47.64,21.94,47.64,55.43,0,40.42-34.94,74.2-86.33,74.2C153.32,401.77,136,398.3,129.94,394.84Z"/><path class="cls-2" d="M319.05,214.68c0-5.77-.58-9.23-4.33-9.23-7.22,0-26.57,9-28,9-.87,0-2.6-.29-2.6-1.45,0-.86.87-2,2-2.89,18.48-12.41,29.45-19.05,47.93-31.46,2.6-1.74,4.91-3.47,6.93-3.47,2.31,0,2.31,3.18,2.31,6.06,0,.87-1.73,62.65-1.73,128.48,0,28.87.57,54.57,1.44,67.27.58,8.95,2.6,13.86,12.13,14.72,3.46.29,5.77.58,7.79.87,2.89.29,4.62,1.16,4.62,2.89,0,1.44-1.44,2-4.91,2-21.65,0-31.47-.87-32.91-.87s-17,.87-35.51.87c-3.18,0-4.91-.58-4.91-2,0-1.16,1.15-2.31,4-2.31a99.12,99.12,0,0,0,11-.87c10.68-.86,13-5.77,13.86-17,.87-12.71.87-36.67.87-65.54Z"/></g></g></svg>