<svg id="Layer_1" data-name="Layer 1" xmlns="http://www.w3.org/2000/svg" viewBox="0 0 157.84 149.96"><defs><style>.cls-1{fill:#0c1723;}</style></defs><title>IGoT_cons</title><path class="cls-1" d="M79.61,126,78,123.78C76.56,121.85,42.9,76.32,42.9,56.72a36.71,36.71,0,1,1,73.42,0c0,19.6-33.66,65.13-35.1,67.06ZM79.61,24A32.72,32.72,0,0,0,46.92,56.72c0,16,25.89,53,32.69,62.44,6.79-9.44,32.69-46.48,32.69-62.44A32.73,32.73,0,0,0,79.61,24Z"/><path class="cls-1" d="M79.61,74.31a19.06,19.06,0,1,1,19-19.05A19.07,19.07,0,0,1,79.61,74.31Zm0-34.08a15,15,0,1,0,15,15A15,15,0,0,0,79.61,40.23Z"/><rect class="cls-1" x="25.85" y="107.38" width="43.3" height="4.02"/><rect class="cls-1" x="88.86" y="107.38" width="45.13" height="4.02"/></svg>