<svg id="Layer_1" data-name="Layer 1" xmlns="http://www.w3.org/2000/svg" viewBox="0 0 157.84 149.96"><defs><style>.cls-1{fill:#0c1723;}</style></defs><title>IGoT_cons</title><path class="cls-1" d="M129.93,119.89H25.73V22.65h104.2ZM29.48,116.15h96.71V26.4H29.48Z"/><path class="cls-1" d="M62.73,35.19l4.65,4.65-8.21,8.21,8.21,8.2L62.73,60.9l-8.21-8.21-8.2,8.21-4.65-4.65,8.21-8.2-8.21-8.21,4.65-4.65,8.2,8.21,8.21-8.21M46.32,31.66l-1.76,1.77-4.65,4.65-1.77,1.76,1.77,1.77,6.44,6.44-6.44,6.44-1.77,1.76L39.91,58l4.65,4.65,1.76,1.77,1.77-1.77,6.43-6.44L61,62.66l1.77,1.77,1.76-1.77L69.14,58l1.77-1.76-1.77-1.76L62.7,48.05l6.44-6.44,1.77-1.77-1.77-1.76-4.65-4.65-1.76-1.77L61,33.43l-6.44,6.44-6.43-6.44-1.77-1.77Z"/><path class="cls-1" d="M76.73,48.77l-1.88-1.64a17.41,17.41,0,0,1,3.55-3.08l1.37,2.09A14.69,14.69,0,0,0,76.73,48.77Z"/><path class="cls-1" d="M73.64,108.6a31.12,31.12,0,0,1-5.34-.45l.44-2.46a29.43,29.43,0,0,0,8.35.22l.28,2.48A33.18,33.18,0,0,1,73.64,108.6Zm7.58-.91-.62-2.42a17,17,0,0,0,2.61-.87,37.52,37.52,0,0,0,4.9-2.69l1.34,2.11a38.3,38.3,0,0,1-5.24,2.86A19.71,19.71,0,0,1,81.22,107.69Zm-16.73-.52a19.35,19.35,0,0,1-7.85-4.87l1.8-1.73a16.89,16.89,0,0,0,6.86,4.24Zm28.11-5.45-1.4-2.06.57-.39a75.74,75.74,0,0,1,6.92-4.36l1.17,2.2a76,76,0,0,0-6.68,4.22ZM54.22,99.08a20.34,20.34,0,0,1-2.44-6.9,18.28,18.28,0,0,1-.22-1.94l2.49-.15a15.81,15.81,0,0,0,.19,1.67,17.85,17.85,0,0,0,2.13,6.06Zm48.89-3.45-.86-2.34a17.17,17.17,0,0,1,9.23-.94L111,94.8A14.77,14.77,0,0,0,103.11,95.63Zm-48.88-9-2.46-.42A15.51,15.51,0,0,1,56,77.87l1.77,1.76A13,13,0,0,0,54.23,86.64Zm6.21-9.08-1.23-2.17a18.45,18.45,0,0,1,9-2.28l0,2.5A16,16,0,0,0,60.44,77.56Zm27.82,0c-1.25,0-2.57-.07-4-.2l.22-2.49a31.31,31.31,0,0,0,8.39-.17l.42,2.46A29,29,0,0,1,88.26,77.51Zm-7.82-.64L78,76.52c-2.12-.3-4.12-.59-6.12-.76l.22-2.49c2.06.18,4.19.48,6.26.78l2.46.35Zm16.63-.75-.82-2.35a20.54,20.54,0,0,0,7-4.14L105,71.47A23.16,23.16,0,0,1,97.07,76.12Zm10.57-7.66-2-1.43A12.85,12.85,0,0,0,108,59.56h2.5A15.41,15.41,0,0,1,107.64,68.46Zm0-12.32a21.87,21.87,0,0,0-3.51-7.42l2-1.44a24.38,24.38,0,0,1,3.9,8.29Zm-5.76-10a15.12,15.12,0,0,0-7.37-3l.37-2.47a17.62,17.62,0,0,1,8.58,3.58Zm-19-1.66-.94-2.31a24.83,24.83,0,0,1,9-1.81l0,2.5A22.33,22.33,0,0,0,82.87,44.52Z"/><path class="cls-1" d="M118.06,97.85a21,21,0,0,0-3.61-2l1-2.3a24.52,24.52,0,0,1,4,2.23Z"/></svg>