<svg id="Layer_1" data-name="Layer 1" xmlns="http://www.w3.org/2000/svg" viewBox="0 0 157.84 149.96"><defs><style>.cls-1{fill:#0c1723;}</style></defs><title>IGoT_cons</title><path class="cls-1" d="M127.26,115.93H30.58V24.64h96.68Zm-93.61-3.06h90.54V27.71H33.65Z"/><rect class="cls-1" x="32.11" y="43.47" width="93.61" height="3.07"/><path class="cls-1" d="M62.29,75.49c-1-.21-1.35-.31-1.35-.68s.52-.52,1.2-.62c2.55-.47,8.28-3,8.28-9.06,0-2.19-1.36-7-7.5-7-3.8,0-6.56,2.13-6.56,6.14,0,.52-.21.63-.37.63s-.31-.11-.36-.57a51.12,51.12,0,0,1-.36-5.21c0-.47,0-.73.67-1.1a18.09,18.09,0,0,1,8.44-1.77c8.48,0,10.31,5.21,10.31,7.81,0,5.21-5.37,8.65-7,9.38v.26c3.28.78,8.59,4,8.59,10C76.3,91,70,97.05,60.73,97.05a17.22,17.22,0,0,1-6.35-1.25,1.45,1.45,0,0,1-.83-1.46,62.59,62.59,0,0,1,.36-6.51c.05-.52.16-.78.42-.78s.31.16.36.73c.37,4,2.35,7,7.81,7,5.26,0,9.43-3,9.43-9.22C71.93,78.61,65.68,76.17,62.29,75.49Z"/><path class="cls-1" d="M97.49,80.49c0,5.21,0,9.68.26,12,.21,1.62.42,2.4,2.09,2.76a30.18,30.18,0,0,0,3.43.32.49.49,0,0,1,.47.41c0,.26-.26.37-.88.37-3.91,0-7.24-.16-7.5-.16s-4.64.16-8,.16c-.57,0-.88-.11-.88-.37a.44.44,0,0,1,.41-.41,32.82,32.82,0,0,0,4.17-.37c1.72-.31,2.08-1.09,2.19-2.71.15-2.29.15-6.76.15-12v-17c0-1-.1-1.61-.94-1.61s-4.63,1.87-5.93,2.5a1.17,1.17,0,0,1-.63.21c-.15,0-.36-.27-.36-.47a.8.8,0,0,1,.36-.52l10-6.72a2.87,2.87,0,0,1,1.25-.63c.42,0,.58.58.58,1.1s-.21,5.57-.26,13.54Z"/></svg>