<svg xmlns="http://www.w3.org/2000/svg" viewBox="0 0 532.95 284.42"><defs><style>.cls-1{fill:none;stroke:#000;stroke-miterlimit:10;stroke-width:11px;}</style></defs><title>vk</title><g id="Слой_2" data-name="Слой 2"><g id="Layer_1" data-name="Layer 1"><path class="cls-1" d="M417.56,159.9l12.72-19.24L443,121.43l12.72-19.24L468.46,83l12.72-19.24L493.9,44.48l12.73-19.24L519.35,6H363.24l-.36,1.41-.37,1.41-.36,1.41-.37,1.42-.36,1.41-.37,1.41-.36,1.41-.36,1.41c-.94,3.63-2,7.41-3.12,11.31s-2.41,7.89-3.78,11.95-2.87,8.16-4.49,12.28-3.35,8.23-5.23,12.3-3.88,8.08-6,12-4.43,7.73-6.86,11.38a124.37,124.37,0,0,1-7.75,10.44,95.92,95.92,0,0,1-8.67,9.19l-1.12,1c-.37.33-.74.66-1.11,1l-1.09.92-1.07.87-1.06.83c-.35.27-.69.53-1,.78l-1,.74-1,.69V6h-136V36.1h12.7v68.22c-1.9-1.67-3.87-3.54-5.86-5.61s-4-4.35-6-6.85-4-5.22-6-8.18-3.87-6.16-5.7-9.62-3.58-7.16-5.21-11.13-3.16-8.23-4.53-12.76-2.59-9.35-3.62-14.47-1.88-10.54-2.51-16.28l-.18-1.68-.18-1.68-.19-1.67-.18-1.68L142.32,11l-.19-1.68L142,7.68,141.77,6H7.66l.58,2.33.57,2.33L9.39,13,10,15.33l.58,2.33L11.12,20l.57,2.33.58,2.34q3.11,12.57,6.59,24.58t7.37,23.44q3.87,11.43,8.12,22.26T43.23,116q4.62,10.23,9.62,19.86t10.36,18.64q5.35,9,11.09,17.39T86.1,188q5,6.33,10.17,12.23t10.63,11.38q5.43,5.48,11.08,10.52t11.53,9.65q5.87,4.62,12,8.79t12.38,7.9q6.3,3.72,12.79,7t13.2,6.12q6,2.52,11.83,4.59t11.53,3.72q5.69,1.67,11.16,2.93t10.72,2.22c3.49.63,6.9,1.15,10.21,1.58s6.54.77,9.65,1,6.12.44,9,.56,5.66.17,8.3.17c2.43,0,4.75-.05,7-.12s4.29-.19,6.24-.32,3.8-.29,5.49-.46,3.27-.35,4.68-.53,2.7-.37,3.82-.55,2.1-.34,2.91-.49l1.93-.37.92-.2,1.44-.34,1.43-.33,1.43-.34,1.43-.33,1.44-.34,1.43-.33,1.43-.33,1.44-.34.07-5.17.08-5.16.07-5.17L307,252l.08-5.17.07-5.17.08-5.17.07-5.17,6.38,5.55,6.39,5.56L326.4,248l6.38,5.55,6.38,5.55,6.38,5.56,6.39,5.55,6.38,5.55H519.66L506.9,261.29,494.14,246.8l-12.77-14.48-12.76-14.48-12.76-14.49-12.77-14.48-12.76-14.48Z"/><path class="cls-1" d="M262.24,278.92c-2.75,0-5.55-.06-8.32-.17-3-.12-6-.31-9-.56-3.22-.27-6.48-.62-9.67-1-3.4-.45-6.84-1-10.24-1.59-3.59-.65-7.2-1.39-10.74-2.22-3.74-.87-7.5-1.86-11.19-2.94-3.87-1.13-7.76-2.38-11.55-3.73-4-1.41-8-3-11.86-4.6-4.46-1.89-8.91-3.95-13.23-6.13s-8.64-4.55-12.83-7-8.35-5.14-12.41-7.92-8.08-5.74-12-8.8-7.8-6.33-11.55-9.68-7.49-6.89-11.11-10.54-7.19-7.48-10.65-11.4S89,192.53,85.71,188.33c-4-5.14-8-10.58-11.83-16.15s-7.54-11.44-11.1-17.42S55.73,142.5,52.41,136.1,45.85,123,42.77,116.22s-6.06-13.91-8.88-21.1-5.56-14.69-8.14-22.28S20.7,57.35,18.38,49.38s-4.54-16.25-6.6-24.6L7,5.5H142.21l1.52,13.86c.61,5.56,1.45,11,2.5,16.24,1,4.95,2.21,9.8,3.61,14.43,1.32,4.36,2.84,8.64,4.51,12.71,1.57,3.82,3.32,7.55,5.19,11.09,1.76,3.31,3.66,6.53,5.67,9.57,1.87,2.82,3.86,5.56,5.94,8.15,1.9,2.37,3.92,4.66,6,6.81,1.61,1.68,3.29,3.31,5,4.85V36.6h-12.7V5.5h137V114l.21-.14,1-.73,1-.78,1-.82,1.07-.86,1.09-.92,1.1-1,1.11-1a96.17,96.17,0,0,0,8.63-9.15,121,121,0,0,0,7.71-10.4c2.35-3.52,4.65-7.34,6.84-11.34,2.06-3.76,4.08-7.79,6-12,1.8-3.9,3.55-8,5.22-12.27,1.54-3.94,3-8.07,4.47-12.26,1.31-3.85,2.58-7.87,3.78-11.94,1.08-3.66,2.12-7.46,3.11-11.28l3-11.67H520.28L418.19,159.86,520.77,276.27H358.12l-50.38-43.83-.59,40.66-11.84,2.76-.93.2c-.49.11-1.14.23-1.95.38s-1.79.32-2.92.5-2.41.36-3.83.54-3.11.38-4.7.54c-1.8.18-3.65.33-5.5.46-2.06.14-4.17.24-6.27.32C266.91,278.88,264.57,278.92,262.24,278.92ZM8.3,6.5l4.45,18c2.06,8.34,4.28,16.6,6.59,24.57s4.79,15.83,7.36,23.41S32,87.58,34.82,94.76s5.8,14.25,8.87,21,6.3,13.46,9.61,19.84,6.79,12.64,10.34,18.61,7.27,11.81,11.07,17.36,7.76,11,11.79,16.1c3.28,4.19,6.69,8.29,10.14,12.21s7,7.72,10.61,11.36,7.33,7.16,11.06,10.49,7.61,6.58,11.51,9.64,7.9,6,11.93,8.76,8.19,5.42,12.35,7.89,8.47,4.82,12.77,7,8.73,4.23,13.17,6.11c3.87,1.63,7.84,3.18,11.8,4.58,3.78,1.34,7.65,2.59,11.5,3.71,3.67,1.07,7.41,2.06,11.13,2.93,3.53.82,7.12,1.56,10.7,2.2,3.38.61,6.81,1.14,10.19,1.58,3.18.42,6.42.76,9.62,1,3,.25,6,.44,9,.56,5.09.21,10.22.22,15.22.05,2.08-.08,4.18-.18,6.23-.32,1.84-.13,3.68-.28,5.48-.46,1.58-.16,3.15-.33,4.66-.53s2.69-.36,3.8-.54,2.09-.34,2.9-.49l1.92-.37.91-.2,11.08-2.59.61-42,51.73,45h160L416.93,160,518.42,6.5H363.63l-2.82,10.92c-1,3.83-2,7.64-3.13,11.32-1.2,4.08-2.47,8.1-3.78,12-1.43,4.21-2.94,8.35-4.49,12.3-1.67,4.26-3.44,8.41-5.24,12.33-1.94,4.19-4,8.24-6,12-2.21,4-4.53,7.87-6.89,11.42a124.43,124.43,0,0,1-7.77,10.48,98.11,98.11,0,0,1-8.72,9.24l-1.13,1c-.37.34-.74.66-1.11,1l-1.1.93c-.36.3-.73.59-1.08.87l-1.06.84-1,.78c-.34.26-.68.5-1,.74l-1,.7-.78.54V6.5h-135V35.6h12.7v69.83l-.83-.73c-2-1.77-4-3.67-5.89-5.64-2.09-2.18-4.13-4.49-6-6.89-2.1-2.61-4.11-5.37-6-8.22-2-3.07-3.95-6.32-5.72-9.65-1.89-3.57-3.65-7.33-5.24-11.18-1.68-4.1-3.21-8.41-4.54-12.8-1.4-4.66-2.63-9.54-3.63-14.52-1.06-5.25-1.91-10.74-2.52-16.33l-1.41-13Z"/></g></g></svg>