<svg xmlns="http://www.w3.org/2000/svg" viewBox="0 0 83.49 77.92"><defs><style>.cls-1,.cls-3,.cls-4{fill:none;stroke-miterlimit:10;}.cls-1{stroke:#f0ede4;stroke-width:3px;}.cls-2{fill:#fff;}.cls-3,.cls-4{stroke:#fff;stroke-width:2px;}.cls-4{stroke-dasharray:7 3;}</style></defs><title>Ресурс 10</title><g id="Слой_2" data-name="Слой 2"><g id="_ÎÓÈ_1" data-name="—ÎÓÈ_1"><rect class="cls-1" x="1.5" y="1.5" width="80.49" height="74.92"/><path class="cls-2" d="M29.64,10.05l3.73,3.72-6.58,6.58,6.58,6.57-3.73,3.73-6.57-6.58L16.5,30.65l-3.73-3.73,6.57-6.57-6.57-6.58,3.73-3.72,6.57,6.57,6.57-6.57M16.5,7.22,15.08,8.63l-3.72,3.73L9.94,13.77l1.42,1.42,5.16,5.16-5.16,5.16L9.94,26.92l1.42,1.42,3.72,3.72,1.42,1.42,1.41-1.42,5.16-5.16,5.16,5.16,1.41,1.42,1.42-1.42,3.72-3.72,1.42-1.42-1.42-1.41-5.16-5.16,5.16-5.16,1.42-1.42-1.42-1.41L31.06,8.63,29.64,7.22,28.23,8.63l-5.16,5.16L17.91,8.63,16.5,7.22Z"/><path class="cls-3" d="M40.11,20.27A12.91,12.91,0,0,1,42.75,18"/><path class="cls-4" d="M45.41,16.59c6.17-2.53,14.25-1.59,17.74,3.1,8.29,11.13,1.54,19.74-6.86,22.39-7.38,2.33-15.23-.74-22.26-.65-9.19.13-13.34,7.25-12.17,14.12,2.37,14,18.62,13.49,24.59,10.87C54.19,63,60.86,54.34,70.08,57.21"/><path class="cls-3" d="M71.48,57.73a18.68,18.68,0,0,1,3.07,1.7"/></g></g></svg>